<svg width="161" height="161" viewBox="0 0 161 161" fill="none" xmlns="http://www.w3.org/2000/svg">
<rect x="33.5396" width="26.8333" height="26.8333" fill="#02BEFC"/>
<rect x="33.5396" width="26.8333" height="26.8333" fill="white" fill-opacity="0.2"/>
<rect x="100.624" width="26.8333" height="26.8333" fill="#02BEFC"/>
<rect x="100.624" width="26.8333" height="26.8333" fill="white" fill-opacity="0.2"/>
<rect x="100.624" y="33.5414" width="26.8333" height="26.8333" fill="#02BEFC"/>
<rect x="100.624" y="33.5414" width="26.8333" height="26.8333" fill="white" fill-opacity="0.2"/>
<rect x="134.164" y="33.5414" width="26.8333" height="26.8333" fill="#02BEFC"/>
<rect x="134.164" y="33.5414" width="26.8333" height="26.8333" fill="white" fill-opacity="0.2"/>
<rect x="67.0842" y="33.5414" width="26.8333" height="26.8333" fill="#02BEFC"/>
<rect x="67.0842" y="33.5414" width="26.8333" height="26.8333" fill="white" fill-opacity="0.2"/>
<rect x="33.5396" y="33.5414" width="26.8333" height="26.8333" fill="#02BEFC"/>
<rect x="33.5396" y="33.5414" width="26.8333" height="26.8333" fill="white" fill-opacity="0.2"/>
<rect y="33.5414" width="26.8333" height="26.8333" fill="#02BEFC"/>
<rect y="33.5414" width="26.8333" height="26.8333" fill="white" fill-opacity="0.2"/>
<rect x="100.624" y="67.083" width="26.8333" height="26.8333" fill="#02BEFC"/>
<rect x="100.624" y="67.083" width="26.8333" height="26.8333" fill="white" fill-opacity="0.2"/>
<rect x="134.164" y="67.083" width="26.8333" height="26.8333" fill="#02BEFC"/>
<rect x="134.164" y="67.083" width="26.8333" height="26.8333" fill="white" fill-opacity="0.2"/>
<rect x="67.0842" y="67.083" width="26.8333" height="26.8333" fill="#02BEFC"/>
<rect x="67.0842" y="67.083" width="26.8333" height="26.8333" fill="white" fill-opacity="0.2"/>
<rect x="33.5396" y="67.083" width="26.8333" height="26.8333" fill="#02BEFC"/>
<rect x="33.5396" y="67.083" width="26.8333" height="26.8333" fill="white" fill-opacity="0.2"/>
<rect y="67.083" width="26.8333" height="26.8333" fill="#02BEFC"/>
<rect y="67.083" width="26.8333" height="26.8333" fill="white" fill-opacity="0.2"/>
<rect x="100.624" y="100.624" width="26.8333" height="26.8333" fill="#02BEFC"/>
<rect x="100.624" y="100.624" width="26.8333" height="26.8333" fill="white" fill-opacity="0.2"/>
<rect x="67.0842" y="100.624" width="26.8333" height="26.8333" fill="#02BEFC"/>
<rect x="67.0842" y="100.624" width="26.8333" height="26.8333" fill="white" fill-opacity="0.2"/>
<rect x="67.0842" y="134.166" width="26.8333" height="26.8333" fill="#02BEFC"/>
<rect x="67.0842" y="134.166" width="26.8333" height="26.8333" fill="white" fill-opacity="0.2"/>
<rect x="33.5396" y="100.624" width="26.8333" height="26.8333" fill="#02BEFC"/>
<rect x="33.5396" y="100.624" width="26.8333" height="26.8333" fill="white" fill-opacity="0.2"/>
</svg>
