<svg width="138" height="24" viewBox="0 0 138 24" fill="none" xmlns="http://www.w3.org/2000/svg">
<rect x="4" y="2.4" width="3.2" height="3.2" fill="#02BEFC"/>
<rect x="12" y="2.4" width="3.2" height="3.2" fill="#02BEFC"/>
<rect x="12" y="6.4" width="3.2" height="3.2" fill="#02BEFC"/>
<rect x="16" y="6.4" width="3.2" height="3.2" fill="#02BEFC"/>
<rect x="8" y="6.4" width="3.2" height="3.2" fill="#02BEFC"/>
<rect x="4" y="6.4" width="3.2" height="3.2" fill="#02BEFC"/>
<rect y="6.4" width="3.2" height="3.2" fill="#02BEFC"/>
<rect x="12" y="10.4" width="3.2" height="3.2" fill="#02BEFC"/>
<rect x="16" y="10.4" width="3.2" height="3.2" fill="#02BEFC"/>
<rect x="8" y="10.4" width="3.2" height="3.2" fill="#02BEFC"/>
<rect x="4" y="10.4" width="3.2" height="3.2" fill="#02BEFC"/>
<rect y="10.4" width="3.2" height="3.2" fill="#02BEFC"/>
<rect x="12" y="14.4" width="3.2" height="3.2" fill="#02BEFC"/>
<rect x="8" y="14.4" width="3.2" height="3.2" fill="#02BEFC"/>
<rect x="8" y="18.4" width="3.2" height="3.2" fill="#02BEFC"/>
<rect x="4" y="14.4" width="3.2" height="3.2" fill="#02BEFC"/>
<path d="M35.312 19.336C34.448 19.336 33.664 19.16 32.96 18.808C32.256 18.456 31.664 17.992 31.184 17.416C30.704 16.824 30.36 16.168 30.152 15.448V10.504C30.36 9.768 30.704 9.112 31.184 8.536C31.664 7.944 32.256 7.472 32.96 7.12C33.664 6.768 34.448 6.592 35.312 6.592C36.4 6.592 37.376 6.864 38.24 7.408C39.104 7.952 39.792 8.704 40.304 9.664C40.816 10.624 41.072 11.728 41.072 12.976C41.072 14.208 40.816 15.304 40.304 16.264C39.792 17.208 39.104 17.96 38.24 18.52C37.376 19.064 36.4 19.336 35.312 19.336ZM28.904 19V1.72L31.232 1.432L31.304 1.624V10.936L30.704 12.952L31.184 14.968V19H28.904ZM35.024 17.104C35.744 17.104 36.376 16.928 36.92 16.576C37.464 16.224 37.888 15.736 38.192 15.112C38.512 14.488 38.672 13.768 38.672 12.952C38.672 12.136 38.512 11.416 38.192 10.792C37.888 10.168 37.464 9.688 36.92 9.352C36.376 9 35.744 8.824 35.024 8.824C34.304 8.824 33.656 9 33.08 9.352C32.52 9.688 32.072 10.168 31.736 10.792C31.416 11.416 31.256 12.136 31.256 12.952C31.256 13.768 31.416 14.488 31.736 15.112C32.072 15.736 32.52 16.224 33.08 16.576C33.656 16.928 34.304 17.104 35.024 17.104ZM43.573 19V6.928H45.973V19H43.573ZM44.773 4.912C44.325 4.912 43.949 4.76 43.645 4.456C43.341 4.136 43.189 3.76 43.189 3.328C43.189 2.88 43.341 2.504 43.645 2.2C43.949 1.896 44.325 1.744 44.773 1.744C45.205 1.744 45.573 1.896 45.877 2.2C46.197 2.504 46.357 2.88 46.357 3.328C46.357 3.76 46.197 4.136 45.877 4.456C45.573 4.76 45.205 4.912 44.773 4.912ZM53.0354 19C51.9314 19 51.0354 18.648 50.3474 17.944C49.6754 17.24 49.3394 16.288 49.3394 15.088V3.736H51.7394V14.872C51.7394 15.528 51.8914 16.016 52.1954 16.336C52.5154 16.64 53.0034 16.792 53.6594 16.792H55.0034L55.1234 17.056V19H53.0354ZM47.2754 9.136V6.928H55.1234V9.136H47.2754ZM57.7293 19V6.928H60.0093V10.072L59.5293 9.616C59.7693 8.992 60.1133 8.456 60.5613 8.008C61.0093 7.56 61.5293 7.216 62.1213 6.976C62.7293 6.72 63.3853 6.592 64.0893 6.592C65.1133 6.592 66.0093 6.88 66.7773 7.456C67.5613 8.032 68.0813 8.872 68.3373 9.976L67.4733 9.952C67.7133 9.264 68.0733 8.672 68.5533 8.176C69.0493 7.664 69.6333 7.272 70.3053 7C70.9933 6.728 71.7213 6.592 72.4893 6.592C73.3053 6.592 74.0493 6.776 74.7213 7.144C75.3933 7.512 75.9213 8.064 76.3053 8.8C76.7053 9.52 76.9053 10.424 76.9053 11.512V19H74.5053V12.088C74.5053 11.288 74.3853 10.656 74.1453 10.192C73.9213 9.712 73.6093 9.368 73.2093 9.16C72.8253 8.936 72.3773 8.824 71.8653 8.824C71.3853 8.824 70.8813 8.96 70.3533 9.232C69.8413 9.488 69.4093 9.904 69.0573 10.48C68.7053 11.056 68.5293 11.816 68.5293 12.76V19H66.1293V12.088C66.1293 11.288 66.0093 10.656 65.7693 10.192C65.5293 9.712 65.2093 9.368 64.8093 9.16C64.4253 8.936 63.9853 8.824 63.4893 8.824C62.9933 8.824 62.4813 8.96 61.9533 9.232C61.4413 9.504 61.0093 9.928 60.6573 10.504C60.3053 11.064 60.1293 11.816 60.1293 12.76V19H57.7293ZM83.692 19.336C82.876 19.336 82.14 19.176 81.484 18.856C80.844 18.536 80.34 18.096 79.972 17.536C79.604 16.96 79.42 16.304 79.42 15.568C79.42 14.464 79.804 13.584 80.572 12.928C81.34 12.256 82.428 11.864 83.836 11.752L88.492 11.368V13.432L84.244 13.768C83.428 13.832 82.828 14.008 82.444 14.296C82.06 14.584 81.868 14.976 81.868 15.472C81.868 15.952 82.076 16.352 82.492 16.672C82.908 16.976 83.436 17.128 84.076 17.128C84.748 17.128 85.356 16.968 85.9 16.648C86.46 16.328 86.9 15.904 87.22 15.376C87.54 14.832 87.7 14.248 87.7 13.624V11.656C87.7 10.808 87.428 10.112 86.884 9.568C86.356 9.024 85.652 8.752 84.772 8.752C84.036 8.752 83.42 8.928 82.924 9.28C82.444 9.632 82.124 10.096 81.964 10.672H81.7L79.636 10.096C79.956 9.024 80.564 8.168 81.46 7.528C82.356 6.888 83.46 6.568 84.772 6.568C86.452 6.568 87.756 7.064 88.684 8.056C89.612 9.032 90.076 10.408 90.076 12.184V19H87.868V15.496L88.732 15.76C88.54 16.416 88.196 17.016 87.7 17.56C87.22 18.104 86.636 18.536 85.948 18.856C85.26 19.176 84.508 19.336 83.692 19.336ZM94.7703 16.768V13.552L101.37 6.928H104.298V7.12L94.7703 16.768ZM93.4743 19V1.72L95.8023 1.432L95.8743 1.624V19H93.4743ZM101.658 19L97.3863 12.856L99.0423 11.296L104.322 18.808V19H101.658ZM110.895 19.336C109.695 19.336 108.631 19.072 107.703 18.544C106.791 18 106.079 17.248 105.567 16.288C105.055 15.328 104.799 14.216 104.799 12.952C104.799 11.688 105.047 10.584 105.543 9.64C106.055 8.68 106.759 7.936 107.655 7.408C108.567 6.864 109.615 6.592 110.799 6.592C111.967 6.592 112.983 6.864 113.847 7.408C114.727 7.952 115.407 8.72 115.887 9.712C116.383 10.688 116.631 11.832 116.631 13.144V13.504L116.271 13.864H106.023V11.752H115.479L114.255 12.232C114.223 11.512 114.047 10.896 113.727 10.384C113.423 9.872 113.015 9.48 112.503 9.208C112.007 8.92 111.447 8.776 110.823 8.776C110.151 8.776 109.535 8.936 108.975 9.256C108.415 9.576 107.975 10.024 107.655 10.6C107.351 11.16 107.199 11.816 107.199 12.568V13.288C107.199 14.024 107.359 14.688 107.679 15.28C107.999 15.856 108.439 16.312 108.999 16.648C109.559 16.984 110.191 17.152 110.895 17.152C111.567 17.152 112.159 16.984 112.671 16.648C113.199 16.296 113.615 15.832 113.919 15.256H114.207L116.151 16.096C115.687 17.104 114.999 17.896 114.087 18.472C113.175 19.048 112.111 19.336 110.895 19.336ZM119.136 19V6.928H121.416V10.168L120.768 9.952C121.088 9.024 121.632 8.288 122.4 7.744C123.184 7.2 124.08 6.928 125.088 6.928H126.264V9.136H124.704C124.064 9.136 123.504 9.288 123.024 9.592C122.56 9.88 122.192 10.288 121.92 10.816C121.664 11.344 121.536 11.968 121.536 12.688V19H119.136ZM132.194 19.336C130.898 19.336 129.802 19.032 128.906 18.424C128.01 17.8 127.418 16.944 127.13 15.856L129.314 15.304L129.602 15.376C129.762 15.936 130.09 16.376 130.586 16.696C131.098 17 131.69 17.152 132.362 17.152C133.018 17.152 133.578 17.008 134.042 16.72C134.506 16.432 134.738 16.048 134.738 15.568C134.738 15.168 134.602 14.856 134.33 14.632C134.058 14.392 133.65 14.208 133.106 14.08L130.85 13.576C129.714 13.32 128.866 12.904 128.306 12.328C127.746 11.736 127.466 11.024 127.466 10.192C127.466 9.472 127.666 8.848 128.066 8.32C128.466 7.776 129.01 7.352 129.698 7.048C130.402 6.744 131.194 6.592 132.074 6.592C133.322 6.592 134.378 6.904 135.242 7.528C136.106 8.136 136.674 9 136.946 10.12L134.834 10.576L134.57 10.528C134.426 9.984 134.106 9.56 133.61 9.256C133.13 8.936 132.586 8.776 131.978 8.776C131.386 8.776 130.882 8.904 130.466 9.16C130.066 9.4 129.866 9.72 129.866 10.12C129.866 10.44 129.994 10.72 130.25 10.96C130.506 11.184 130.898 11.352 131.426 11.464L133.706 11.992C134.858 12.248 135.714 12.656 136.274 13.216C136.85 13.776 137.138 14.512 137.138 15.424C137.138 16.224 136.922 16.92 136.49 17.512C136.074 18.088 135.49 18.536 134.738 18.856C134.002 19.176 133.154 19.336 132.194 19.336Z" fill="#020120"/>
</svg>
